<?xml version="1.0" encoding="iso-8859-1"?>
<!-- Generator: Adobe Illustrator 19.0.0, SVG Export Plug-In . SVG Version: 6.00 Build 0)  -->
<svg version="1.1" id="Capa_1" xmlns="http://www.w3.org/2000/svg" xmlns:xlink="http://www.w3.org/1999/xlink" x="0px" y="0px"
	 viewBox="0 0 490.675 490.675" style="enable-background:new 0 0 490.675 490.675;" xml:space="preserve">
<g>
	<g>
		<g>
			<path d="M490.244,210.3c0-116.1-94.1-210.3-210.3-210.3c-70.9,0-133.7,35.1-171.7,88.9l16,16c33.8-49.9,90.9-82.6,155.7-82.6
				c103.8,0,188,84.2,188,188c0,64.7-32.7,121.7-82.4,155.5l16,16C455.244,343.8,490.244,281.1,490.244,210.3z"/>
		</g>
		<path d="M334.644,346.2c-14-14-36.9-15.5-51.7-2.3c-25.4,25.4-33.8,22.1-43.1,12.4L133.744,251c-9.7-9.7-13-17.7,12.4-43.1
			c13.2-14.8,11.7-37.7-2.3-51.7L84.044,96c-14-14-36.5-15.5-51.3-2.7c-50.6,45.6-39,153.5,15.5,204l146.1,146.1
			c49.2,52.2,153.8,66.7,202.8,15.2c12.8-14.8,11.3-37.3-2.7-51.3L334.644,346.2z"/>
		<g>
			<g>
				<path d="M275.844,262.7h-71.7c-6.9,0-12.5-5.6-12.5-12.5c0-24.7,59.8-71.5,63-74.2c3.2-3.7,4.9-8.3,4.9-13.2
					c0-11.1-9.1-20.2-20.2-20.2c-11.1,0-20.2,9.1-20.2,20.2c0,6.9-5.6,12.5-12.5,12.5s-12.5-5.6-12.5-12.5
					c0-24.9,20.3-45.2,45.2-45.2s45.2,20.3,45.2,45.2c0,11.5-4.3,22.4-12.1,30.8c-0.4,0.4-0.8,0.8-1.2,1.2
					c-18,14.8-35.3,31.3-45.5,42.9h50.1c6.9,0,12.5,5.6,12.5,12.5C288.344,257.1,282.744,262.7,275.844,262.7z"/>
			</g>
			<g>
				<path d="M368.244,264.5c-6.9,0-12.5-5.6-12.5-12.5v-16.1h-52c-4.6,0-8.9-2.6-11.1-6.7s-1.9-9.1,0.8-12.9l64.5-93.3
					c3.1-4.5,8.8-6.4,14-4.8c5.2,1.6,8.8,6.5,8.8,11.9v80.8h14.3c6.9,0,12.5,5.6,12.5,12.5s-5.6,12.5-12.5,12.5h-14.3V252
					C380.744,258.9,375.144,264.5,368.244,264.5z M327.544,210.9h28.2v-40.7L327.544,210.9z"/>
			</g>
		</g>
	</g>
</g>
<g>
</g>
<g>
</g>
<g>
</g>
<g>
</g>
<g>
</g>
<g>
</g>
<g>
</g>
<g>
</g>
<g>
</g>
<g>
</g>
<g>
</g>
<g>
</g>
<g>
</g>
<g>
</g>
<g>
</g>
</svg>
